<?xml version="1.0" encoding="UTF-8"?>
<svg width="323px" height="645px" viewBox="0 0 323 645" version="1.1" xmlns="http://www.w3.org/2000/svg" xmlns:xlink="http://www.w3.org/1999/xlink">
    <!-- Generator: Sketch 59.1 (86144) - https://sketch.com -->
    <title>iphoneApp</title>
    <desc>Created with Sketch.</desc>
    <g id="Page-1" stroke="none" stroke-width="1" fill="none" fill-rule="evenodd">
        <g id="iphoneApp">
            <rect id="Rectangle" fill="#F9FAFA" fill-rule="nonzero" x="0" y="0" width="323" height="645" rx="44"></rect>
            <rect id="Rectangle" fill="#FFFFFF" fill-rule="nonzero" x="14" y="63" width="296" height="519"></rect>
            <g id="Group-3" transform="translate(48.000000, 517.000000)" fill="#777DDC" fill-rule="nonzero">
                <path d="M9.2299867,0 L217.570013,0 C220.779481,0 221.943311,0.334172 223.116645,0.961678 C224.289978,1.589183 225.210817,2.510022 225.838322,3.683355 C226.465828,4.856689 226.8,6.020519 226.8,9.229987 L226.8,34.770013 C226.8,37.979481 226.465828,39.143311 225.838322,40.316645 C225.210817,41.489978 224.289978,42.410817 223.116645,43.038322 C221.943311,43.665828 220.779481,44 217.570013,44 L9.2299867,44 C6.0205193,44 4.8566888,43.665828 3.6833555,43.038322 C2.5100221,42.410817 1.5891833,41.489978 0.9616777,40.316645 C0.3341722,39.143311 0,37.979481 0,34.770013 L0,9.229987 C0,6.020519 0.3341722,4.856689 0.9616777,3.683355 C1.5891833,2.510022 2.5100221,1.589183 3.6833555,0.961678 C4.8566888,0.334172 6.0205193,0 9.2299867,0 Z" id="Button-Shape-Copy-2" fill-opacity="0.0979020979"></path>
                <path d="M84.5947266,27.472168 C85.3666992,27.472168 86.0888672,27.355957 86.7280273,27.1235352 L87.7324219,28.4765625 L89.6416016,28.4765625 L88.0976562,26.3598633 C89.4257812,25.3554688 90.1728516,23.5292969 90.1728516,21.1967773 C90.1728516,17.3286133 88.0229492,14.9130859 84.5947266,14.9130859 C81.1582031,14.9130859 79,17.3203125 79,21.1967773 C79,25.0898438 81.1416016,27.472168 84.5947266,27.472168 Z M84.6030273,25.8535156 C82.3120117,25.8535156 80.8842773,24.0688477 80.8842773,21.1967773 C80.8842773,18.324707 82.3203125,16.5317383 84.5947266,16.5317383 C86.8608398,16.5317383 88.296875,18.3330078 88.296875,21.1967773 C88.296875,22.8486328 87.8320312,24.1601562 87.0102539,24.8740234 L86.0307617,23.5708008 L84.1049805,23.5708008 L85.6904297,25.7041016 C85.3417969,25.8120117 84.9765625,25.8535156 84.6030273,25.8535156 Z M99.6925859,18.1669922 L97.907918,18.1669922 L97.907918,23.4545898 C97.907918,24.9072266 97.1193438,25.7871094 95.6750078,25.7871094 C94.3634844,25.7871094 93.7741289,25.0732422 93.7741289,23.5791016 L93.7741289,18.1669922 L91.9894609,18.1669922 L91.9894609,24.019043 C91.9894609,26.1357422 93.1017656,27.355957 95.1022539,27.355957 C96.4718828,27.355957 97.3932695,26.7749023 97.8332109,25.7539062 L97.9743242,25.7539062 L97.9743242,27.1816406 L99.6925859,27.1816406 L99.6925859,18.1669922 Z M102.795816,16.5566406 C103.418375,16.5566406 103.924723,16.050293 103.924723,15.4360352 C103.924723,14.8134766 103.418375,14.3071289 102.795816,14.3071289 C102.173258,14.3071289 101.66691,14.8134766 101.66691,15.4360352 C101.66691,16.050293 102.173258,16.5566406 102.795816,16.5566406 Z M101.907633,27.1816406 L103.684,27.1816406 L103.684,18.1669922 L101.907633,18.1669922 L101.907633,27.1816406 Z M106.529906,15.8925781 L106.529906,18.1918945 L105.093871,18.1918945 L105.093871,19.6196289 L106.529906,19.6196289 L106.529906,24.8076172 C106.529906,26.5424805 107.31848,27.2397461 109.302367,27.2397461 C109.651,27.2397461 109.983031,27.1982422 110.273559,27.1484375 L110.273559,25.7290039 L109.942565,25.7590942 C109.837768,25.7663574 109.729857,25.7705078 109.592895,25.7705078 C108.704711,25.7705078 108.314574,25.347168 108.314574,24.3759766 L108.314574,19.6196289 L110.273559,19.6196289 L110.273559,18.1918945 L108.314574,18.1918945 L108.314574,15.8925781 L106.529906,15.8925781 Z M123.411172,23.1806641 L123.411172,21.5288086 L114.911172,21.5288086 L114.911172,23.1806641 L123.411172,23.1806641 Z M132.423297,28.3769531 L133.41109,28.3769531 L133.41109,26.9824219 C135.511188,26.824707 137.154742,25.6791992 137.154742,23.6455078 C137.154742,21.9429253 136.054029,21.0485589 134.023083,20.5325002 L133.41109,20.3833008 L133.41109,16.9135742 C134.456988,17.0546875 135.195758,17.6606445 135.303668,18.6982422 L137.02193,18.6982422 C136.955523,16.8222656 135.469684,15.5771484 133.41109,15.4111328 L133.41109,14 L132.423297,14 L132.423297,15.4111328 C130.348102,15.5688477 128.862262,16.7890625 128.862262,18.6484375 C128.862262,20.3334961 129.999469,21.2797852 132.107867,21.7695312 L132.423297,21.8525391 L132.423297,25.4716797 C131.103473,25.3305664 130.480914,24.6166992 130.3315,23.6455078 L128.604938,23.6455078 C128.671344,25.6293945 130.323199,26.8164062 132.423297,26.9824219 L132.423297,28.3769531 Z M130.622027,18.5073242 C130.622027,17.7519531 131.236285,17.0629883 132.423297,16.9135742 L132.423297,20.1508789 C131.111773,19.8188477 130.622027,19.2626953 130.622027,18.5073242 Z M135.403277,23.8115234 C135.403277,24.699707 134.805621,25.3637695 133.41109,25.4799805 L133.41109,22.0766602 C134.930133,22.4418945 135.403277,22.9482422 135.403277,23.8115234 Z M144.923012,27.1816406 L146.71598,27.1816406 L146.71598,24.7993164 L148.367836,24.7993164 L148.367836,23.222168 L146.71598,23.222168 L146.71598,15.2036133 L144.068031,15.2036133 C142.416176,17.6855469 140.65641,20.5161133 139.079262,23.222168 L139.079262,24.7993164 L144.923012,24.7993164 L144.923012,27.1816406 Z M140.86393,23.1391602 C142.092445,21.0390625 143.553383,18.706543 144.840004,16.7724609 L144.947914,16.7724609 L144.947914,23.2553711 L140.86393,23.2553711 L140.86393,23.1391602 Z" id="Quit–$4" style="mix-blend-mode: multiply;"></path>
            </g>
            <g id="Group" transform="translate(231.800000, 86.000000)" fill="#777DDC" fill-rule="nonzero">
                <circle id="Oval-Copy-21" fill-opacity="0.0979020979" cx="25.2" cy="25.2" r="25.2"></circle>
                <path d="M18.98127,25.67457 C18.98127,22.00887 21.95307,19.03707 25.61877,19.03707 C29.28447,19.03707 32.25627,22.00887 32.25627,25.67457 C32.25627,29.34027 29.28447,32.31207 25.61877,32.31207 C21.95307,32.31207 18.98127,29.34027 18.98127,25.67457 Z M15.46785,14.5134 L18.75645,17.8011 C19.01925,18.0648 19.01925,18.4923 18.75645,18.756 C18.49275,19.0197 18.06525,19.0197 17.80155,18.756 L14.51295,15.4683 C14.24925,15.2046 14.24925,14.7771 14.51295,14.5134 C14.77665,14.2497 15.20505,14.2497 15.46785,14.5134 Z M33.49953,32.54418 L36.78723,35.83278 C37.05093,36.09648 37.05093,36.52398 36.78723,36.78768 C36.52353,37.05138 36.09603,37.05138 35.83323,36.78768 L32.54463,33.49998 C32.28093,33.23628 32.28093,32.80788 32.54463,32.54418 C32.80833,32.28138 33.23583,32.28138 33.49953,32.54418 Z M14.51367,35.83278 L17.80137,32.54418 C18.06507,32.28138 18.49257,32.28138 18.75627,32.54418 C19.01997,32.80788 19.01997,33.23628 18.75627,33.49998 L15.46767,36.78768 C15.20487,37.05138 14.77737,37.05138 14.51367,36.78768 C14.24997,36.52398 14.24997,36.09648 14.51367,35.83278 Z M36.78723,15.46812 L33.49953,18.75582 C33.23583,19.01952 32.80833,19.01952 32.54463,18.75582 C32.28093,18.49212 32.28093,18.06462 32.54463,17.80092 L35.83323,14.51322 C36.09603,14.24952 36.52353,14.24952 36.78723,14.51322 C37.05093,14.77692 37.05093,15.20442 36.78723,15.46812 Z M26.32545,15.2253 C26.32545,15.5979 26.02305,15.9003 25.65045,15.9003 C25.27785,15.9003 24.97545,15.5979 24.97545,15.2253 L24.97545,10.575 C24.97545,10.2024 25.27785,9.9 25.65045,9.9 C26.02305,9.9 26.32545,10.2024 26.32545,10.575 L26.32545,15.2253 Z M24.97545,36.0756 C24.97545,35.703 25.27785,35.4006 25.65045,35.4006 C26.02305,35.4006 26.32545,35.703 26.32545,36.0756 L26.32545,40.725 C26.32545,41.0976 26.02305,41.4 25.65045,41.4 C25.27785,41.4 24.97545,41.0976 24.97545,40.725 L24.97545,36.0756 Z M15.2253,24.975 C15.5988,24.975 15.9003,25.2774 15.9003,25.65 C15.9003,26.0226 15.5988,26.325 15.2253,26.325 L10.575,26.325 C10.2024,26.325 9.9,26.0226 9.9,25.65 C9.9,25.2774 10.2024,24.975 10.575,24.975 L15.2253,24.975 Z M36.07515,24.975 L40.72545,24.975 C41.09805,24.975 41.40045,25.2774 41.40045,25.65 C41.40045,26.0226 41.09805,26.325 40.72545,26.325 L36.07515,26.325 C35.70255,26.325 35.40015,26.0226 35.40015,25.65 C35.40015,25.2774 35.70255,24.975 36.07515,24.975 Z" id="Icon-Copy-15" opacity="0.488816034"></path>
            </g>
            <g id="Group-2" transform="translate(44.000000, 201.000000)">
                <circle id="Oval" stroke="#ECEFF1" stroke-width="2" opacity="0.500255766" cx="118" cy="118" r="118"></circle>
                <path d="M118,0 C52.8303995,0 0,52.8304 0,118 C0,183.1696 52.8303995,236 118,236 C183.1696,236 236,183.1696 236,118 C236,80.932687 218.908665,47.85727 192.176724,26.224476" id="Path" stroke="#777DDC" stroke-width="2" stroke-linecap="round"></path>
                <path d="M60.01018,109.398047 C60.19475,103.228125 64.967211,98.824805 71.453539,98.824805 C77.834398,98.824805 82.712328,103.280859 82.712328,109.108008 C82.712328,113.089453 80.892992,116.148047 74.643969,122.739844 L62.093188,136.055273 L62.093188,136.160742 L84.373461,136.160742 L84.373461,137.4 L60.142016,137.4 L60.142016,136.318945 L73.69475,121.896094 C79.759203,115.515234 81.393969,112.799414 81.393969,109.134375 C81.393969,103.992773 77.06975,100.037695 71.427172,100.037695 C65.731859,100.037695 61.486742,103.966406 61.328539,109.398047 L60.01018,109.398047 Z M104.79767,137.4 L104.79767,127.406836 L85.075014,127.406836 L85.075014,126.167578 C91.007631,117.255469 97.045717,108.765234 104.296694,99.193945 L106.089663,99.167578 L106.089663,126.193945 L112.338686,126.193945 L112.338686,127.406836 L106.089663,127.406836 L106.089663,137.4 L104.79767,137.4 Z M86.657045,126.114844 L86.657045,126.193945 L104.79767,126.193945 L104.79767,100.749609 L104.744936,100.749609 C98.153139,109.345312 91.983217,118.125586 86.657045,126.114844 Z M119.104692,130.359961 C118.366411,130.359961 117.733598,129.727148 117.733598,128.988867 C117.733598,128.224219 118.366411,127.591406 119.104692,127.591406 C119.869341,127.591406 120.502153,128.224219 120.502153,128.988867 C120.502153,129.727148 119.869341,130.359961 119.104692,130.359961 Z M119.104692,109.635352 C118.366411,109.635352 117.733598,109.002539 117.733598,108.237891 C117.733598,107.499609 118.366411,106.866797 119.104692,106.866797 C119.869341,106.866797 120.502153,107.499609 120.502153,108.237891 C120.502153,109.002539 119.869341,109.635352 119.104692,109.635352 Z M134.149995,118.204687 L134.149995,116.991797 L138.316011,116.991797 C144.459566,116.991797 148.678316,113.484961 148.678316,108.448828 C148.678316,103.65 144.406831,100.037695 138.685152,100.037695 C133.279878,100.037695 128.982027,103.597266 128.66562,108.316992 L127.373628,108.316992 C127.663667,102.858984 132.462495,98.824805 138.685152,98.824805 C145.17148,98.824805 149.996675,102.911719 149.996675,108.396094 C149.996675,113.11582 146.911714,116.543555 141.849214,117.492773 L141.849214,117.598242 C147.808198,117.967383 151.657808,121.685156 151.657808,127.09043 C151.657808,133.339453 146.305269,137.927344 139.027925,137.927344 C131.961519,137.927344 126.556245,133.603125 126.477144,127.986914 L127.795503,127.986914 C127.874605,132.891211 132.805269,136.714453 139.054292,136.714453 C145.514253,136.714453 150.339448,132.653906 150.339448,127.09043 C150.339448,121.526953 145.830659,118.204687 138.316011,118.204687 L134.149995,118.204687 Z M167.151353,137.927344 C160.849595,137.927344 156.393541,134.077734 155.602525,128.698828 L156.920884,128.698828 C157.659166,133.207617 161.482408,136.714453 167.151353,136.714453 C174.982408,136.714453 179.438462,129.278906 179.702134,117.519141 C179.728502,116.754492 179.702134,115.726172 179.675767,114.908789 L179.623033,114.908789 C178.462877,120.129492 173.242173,124.242773 167.283189,124.242773 C159.979478,124.242773 154.653306,118.890234 154.653306,111.90293 C154.653306,104.441016 160.005845,98.824805 167.283189,98.824805 C171.317369,98.824805 174.692369,100.485937 177.039048,103.359961 C179.6494,106.471289 180.967759,111.164648 180.967759,117.281836 C180.967759,129.832617 175.773423,137.927344 167.151353,137.927344 Z M167.335923,123.029883 C173.637681,123.029883 178.911119,117.861914 178.911119,112.192969 C178.911119,105.442969 173.92772,100.037695 167.283189,100.037695 C160.796861,100.037695 155.971666,105.179297 155.971666,111.90293 C155.971666,117.99375 160.665025,123.029883 167.335923,123.029883 Z" id="24:39" fill="#283238" fill-rule="nonzero"></path>
            </g>
            <g id="logo-copy" transform="translate(111.000000, 92.000000)" opacity="0.8">
                <g id="logo">
                    <path d="M37.4014288,11.4930966 L42.3084994,11.4930966 C43.550802,11.4930966 44.5239244,11.8312739 45.2278958,12.5076386 C45.9318673,13.1840034 46.2838477,14.08811 46.2838477,15.2199857 C46.2838477,16.0895975 46.0733496,16.7728536 45.6523471,17.2697747 C45.2313446,17.7666957 44.6895707,18.1186761 44.0270094,18.3257266 L44.0270094,18.3878414 C44.8414077,18.5810884 45.5108607,18.9434212 46.0353885,19.4748507 C46.5599162,20.0062801 46.8221762,20.775806 46.8221762,21.7834514 C46.8221762,22.3631926 46.7255541,22.9084172 46.532307,23.4191416 C46.33906,23.929866 46.0664476,24.3715669 45.7144619,24.7442577 C45.3624762,25.1169485 44.9483815,25.4102655 44.4721656,25.6242176 C43.9959496,25.8381697 43.4817821,25.9451442 42.9296476,25.9451442 L37.4014288,25.9451442 L37.4014288,11.4930966 Z M42.4120241,24.4336836 C43.2126191,24.4336836 43.8406626,24.2542426 44.2961736,23.8953552 C44.7516845,23.5364678 44.9794366,22.9843416 44.9794366,22.2389601 L44.9794366,21.3900576 C44.9794366,20.6584794 44.7516845,20.109804 44.2961736,19.7440149 C43.8406626,19.3782258 43.2126191,19.195334 42.4120241,19.195334 L39.1406437,19.195334 L39.1406437,24.4336836 L42.4120241,24.4336836 Z M42.122155,17.7666932 C42.8537331,17.7666932 43.4265641,17.6045061 43.8406649,17.2801271 C44.2547658,16.9557481 44.4618131,16.4622853 44.4618131,15.799724 L44.4618131,14.9922313 C44.4618131,14.32967 44.2547658,13.8327564 43.8406649,13.5014757 C43.4265641,13.170195 42.8537331,13.0045572 42.122155,13.0045572 L39.1406437,13.0045572 L39.1406437,17.7666932 L42.122155,17.7666932 Z M49.0972837,24.5372083 L52.2237295,24.5372083 L52.2237295,16.6693314 L49.0972837,16.6693314 L49.0972837,15.2613955 L53.8801246,15.2613955 L53.8801246,17.9530376 L53.9836493,17.9530376 C54.2045031,17.1110326 54.6220485,16.4519319 55.2362981,15.975716 C55.8505477,15.4995 56.6338768,15.2613955 57.5863087,15.2613955 L59.0770644,15.2613955 L59.0770644,16.9177907 L57.0686853,16.9177907 C56.1162533,16.9177907 55.3467274,17.1938538 54.7600845,17.7459883 C54.1734417,18.2981227 53.8801246,19.0227884 53.8801246,19.9200069 L53.8801246,24.5372083 L58.0211125,24.5372083 L58.0211125,25.9451442 L49.0972837,25.9451442 L49.0972837,24.5372083 Z M68.1640968,24.2059293 L68.0812771,24.2059293 C67.9708502,24.4681932 67.8328186,24.7201007 67.6671783,24.9616596 C67.501538,25.2032184 67.2979414,25.4137165 67.0563826,25.5931602 C66.8148238,25.7726039 66.5284083,25.917537 66.1971276,26.0279639 C65.8658469,26.1383908 65.4793586,26.1936034 65.037651,26.1936034 C63.9195787,26.1936034 63.0223737,25.8381722 62.3460089,25.1272991 C61.6696442,24.4164259 61.3314669,23.4122464 61.3314669,22.1147304 L61.3314669,15.2613955 L62.987862,15.2613955 L62.987862,21.8248613 C62.987862,22.8049 63.2018109,23.5330164 63.6297152,24.0092324 C64.0576194,24.4854483 64.6856629,24.7235528 65.5138646,24.7235528 C65.8451453,24.7235528 66.1695194,24.6821433 66.4869968,24.5993231 C66.8044741,24.516503 67.0874388,24.3922746 67.3358993,24.2266342 C67.5843598,24.0609939 67.7845055,23.8504958 67.9363425,23.5951336 C68.0881795,23.3397714 68.1640968,23.0326512 68.1640968,22.6737638 L68.1640968,15.2613955 L69.820492,15.2613955 L69.820492,25.9451442 L68.1640968,25.9451442 L68.1640968,24.2059293 Z M78.0793269,25.9451442 C77.2649286,25.9451442 76.6679421,25.7173921 76.2883497,25.2618812 C75.9087572,24.8063702 75.7189638,24.2197362 75.7189638,23.5019614 L75.7189638,16.6693314 L72.1577143,16.6693314 L72.1577143,15.2613955 L74.8079465,15.2613955 C75.1668339,15.2613955 75.4187415,15.188929 75.5636768,15.0439937 C75.7086121,14.8990584 75.7810787,14.6471508 75.7810787,14.2882634 L75.7810787,11.4930966 L77.375359,11.4930966 L77.375359,15.2613955 L82.2410197,15.2613955 L82.2410197,16.6693314 L77.375359,16.6693314 L77.375359,24.5372083 L82.2410197,24.5372083 L82.2410197,25.9451442 L78.0793269,25.9451442 Z M92.0113152,24.2059293 L91.9284954,24.2059293 C91.8180685,24.4681932 91.680037,24.7201007 91.5143966,24.9616596 C91.3487563,25.2032184 91.1451597,25.4137165 90.9036009,25.5931602 C90.6620421,25.7726039 90.3756266,25.917537 90.0443459,26.0279639 C89.7130653,26.1383908 89.3265769,26.1936034 88.8848693,26.1936034 C87.766797,26.1936034 86.869592,25.8381722 86.1932272,25.1272991 C85.5168625,24.4164259 85.1786852,23.4122464 85.1786852,22.1147304 L85.1786852,15.2613955 L86.8350804,15.2613955 L86.8350804,21.8248613 C86.8350804,22.8049 87.0490293,23.5330164 87.4769335,24.0092324 C87.9048377,24.4854483 88.5328812,24.7235528 89.3610829,24.7235528 C89.6923636,24.7235528 90.0167378,24.6821433 90.3342151,24.5993231 C90.6516924,24.516503 90.9346571,24.3922746 91.1831176,24.2266342 C91.4315781,24.0609939 91.6317239,23.8504958 91.7835608,23.5951336 C91.9353978,23.3397714 92.0113152,23.0326512 92.0113152,22.6737638 L92.0113152,15.2613955 L93.6677103,15.2613955 L93.6677103,25.9451442 L92.0113152,25.9451442 L92.0113152,24.2059293 Z" id="Brutu" fill="#283238" fill-rule="nonzero"></path>
                    <g id="brutu-face">
                        <g id="Group-19">
                            <path d="M1.74622969,13.18313 C1.62768503,13.18313 1.50537704,13.1511418 1.39624069,13.0815203 C1.08764823,12.8895909 0.995446824,12.483152 1.18925794,12.1745596 C2.00778061,10.8724499 4.96387055,7.03197918 5.75604996,6.39409599 L6.06276076,6.1457167 C7.06568624,5.33283901 8.57854194,4.10599583 9.66237886,3.59418395 C11.0566899,2.93748415 12.4999241,2.75872632 13.7324123,3.10307034 C14.1539044,3.21785168 14.5528166,3.39660951 14.9517288,3.577249 C15.2697296,3.72213692 15.5877304,3.86702484 15.9226661,3.96675289 C16.6019458,4.16809065 17.3659003,4.18126228 18.1768963,4.19631557 C19.5580357,4.22077717 20.9862167,4.24523876 22.0982785,5.24628259 C22.3692378,5.4890169 22.3918177,5.90486405 22.1472017,6.17582328 C21.9044674,6.44490085 21.4886203,6.46936244 21.217661,6.22474647 C20.4725231,5.55299338 19.345408,5.53605843 18.1524347,5.51347849 C17.2906339,5.4984252 16.3987264,5.48149025 15.5482155,5.22934763 C15.1549483,5.11268463 14.7804977,4.94521678 14.4079287,4.77586726 C14.0711113,4.62345269 13.7361756,4.46915646 13.3805416,4.36942841 C12.4547643,4.11916746 11.3351758,4.26405538 10.2231139,4.78527556 C9.28416494,5.22746597 7.84657569,6.39597765 6.8925734,7.16934046 L6.58398094,7.41960141 C6.00442926,7.88625342 3.16500233,11.5065698 2.3050831,12.8764192 C2.17901179,13.0739937 1.96638407,13.18313 1.74622969,13.18313" id="Fill-1" fill="#535DDD"></path>
                            <path d="M6.72792804,32.4592449 C6.28385596,32.4592449 5.84166555,32.3557536 5.43146339,32.0716227 C4.72960371,31.5842724 4.36832474,30.6660217 4.40972129,29.4843384 C4.41536627,29.2886456 4.43041956,29.0929528 4.44547285,28.8953784 C4.48498774,28.3779215 4.52262097,27.8868079 4.394668,27.4690791 C4.17639529,26.7521661 3.48582558,26.2441176 2.75762265,25.7097258 C2.21758585,25.3126952 1.65873244,24.9006114 1.21089705,24.3605746 C0.0706102852,22.9813169 -0.183413993,20.9058444 0.47704913,18.3618383 C0.569250535,18.008086 0.93241117,17.7973399 1.27863685,17.8895413 C1.63238918,17.9817427 1.84313525,18.3392584 1.75093384,18.6930107 C1.3689566,20.1701148 1.13939391,22.2060724 2.22699416,23.5232353 C2.56945652,23.9372008 3.03987185,24.2815448 3.53663044,24.6484688 C4.40783963,25.286352 5.30727374,25.9486968 5.65349942,27.0833385 C5.85483718,27.7400383 5.80403233,28.4080281 5.75887246,28.9951064 C5.74570083,29.1757459 5.7325292,29.3545038 5.72500255,29.5313799 C5.71371258,29.8663156 5.73441086,30.6791933 6.18412791,30.9915491 C6.63760829,31.3057865 7.39779947,31.0630522 8.13352904,30.8259629 L8.45529313,30.7224715 C10.7245767,30.0243752 12.7379543,30.103405 14.2865616,30.9539159 C14.6045623,31.1289104 14.7212253,31.5297042 14.5462308,31.8495867 C14.3712363,32.1657058 13.9685608,32.2823688 13.6524417,32.1073743 C12.4255985,31.4356212 10.7640916,31.392343 8.84291536,31.981303 L8.53620456,32.0791493 C7.9848778,32.2579072 7.35452125,32.4592449 6.72792804,32.4592449" id="Fill-6" fill="#535DDD"></path>
                            <path d="M19.0524333,34.5595553 C18.6685744,34.5595553 18.2922422,34.5162771 17.9234366,34.4240757 C16.9619076,34.1851047 15.8178575,33.4569018 14.8092871,32.8152553 C14.3859133,32.5480593 13.9907644,32.2940351 13.6520654,32.1077506 C13.3321829,31.9327561 13.2155199,31.5338439 13.3923961,31.2158431 C13.5636273,30.8978424 13.9625395,30.777416 14.2861852,30.9542922 C14.6455825,31.149985 15.0670747,31.4190626 15.5149101,31.7031934 C16.4388058,32.2921534 17.4868911,32.9563798 18.2395557,33.144546 C19.7185415,33.505825 21.4515515,32.8397168 23.382136,31.1462217 C25.854639,28.9747845 27.8905966,26.2501389 29.271736,23.2639424 C29.7176897,22.3005318 30.1824601,21.0586353 29.8211811,20.0143133 C29.6443049,19.5119097 29.2830259,19.0565477 28.8972854,18.5748424 C28.4249884,17.9840007 27.9376381,17.3743425 27.7099571,16.5802814 C27.499211,15.8483151 27.5594242,15.1314022 27.6196373,14.4389508 C27.6365723,14.2319681 27.6535072,14.026867 27.6629155,13.8217659 C27.6854955,13.3306523 27.6422173,12.4462715 27.1209971,12.0624126 C26.8274579,11.8497848 26.4078474,11.7970983 25.9204972,11.7387668 C25.4820701,11.6860803 24.9834298,11.6258671 24.5148962,11.4188844 C23.2259582,10.848741 22.7649511,9.53910472 22.3566306,8.38376467 C22.0555648,7.52949043 21.771434,6.72225773 21.2182255,6.22361748 C20.9472663,5.98088317 20.9246864,5.56691768 21.1693023,5.29407678 C21.4139183,5.02688088 21.8278838,5.00241928 22.098843,5.24703525 C22.9004307,5.96771154 23.2560647,6.97251868 23.5985271,7.94345592 C23.9635694,8.98025131 24.2796885,9.87404044 25.0474063,10.2146211 C25.3353005,10.3425741 25.6965795,10.3839707 26.0785567,10.4310122 C26.6637534,10.5025153 27.3260982,10.5815451 27.8981232,10.9992739 C28.6639594,11.560009 29.03841,12.5572895 28.9781968,13.881979 C28.9687885,14.1040151 28.9499719,14.3260511 28.9311553,14.5499688 C28.8803504,15.1521004 28.8314272,15.7165988 28.9744335,16.2171207 C29.1306114,16.7571575 29.5163519,17.2407445 29.9265541,17.7525564 C30.3630995,18.2982382 30.8146983,18.8646182 31.0649592,19.5815312 C31.5824161,21.0736886 31.016036,22.6279409 30.4665909,23.8171508 C29.0101851,26.9689335 26.8594462,29.844112 24.2514636,32.1340939 C22.4149621,33.7466776 20.6706621,34.5595553 19.0524333,34.5595553" id="Fill-3" fill="#535DDD"></path>
                            <path d="M1.5422576,14.1388258 C1.51967767,14.2630155 1.49897939,14.3872051 1.48204444,14.5095131 C1.46887281,14.5960695 1.45946451,14.6826259 1.4500562,14.7691824 C1.48768943,14.5584363 1.51967767,14.3476902 1.5422576,14.1388258 M1.90541824,18.1279478 C2.08793939,18.5513216 2.31750207,18.9427072 2.59222462,19.2908145 C2.75781082,19.5053239 2.94221363,19.7066617 3.12661644,19.9079994 C3.62902001,20.4612079 4.19916339,21.0878011 4.43248939,21.9194954 C4.60560223,22.5366803 4.56044236,23.1331669 4.52092747,23.7127186 C4.50775584,23.8820681 4.49458421,24.0532993 4.48893923,24.2207672 C4.43813438,25.7242146 4.94430127,27.222017 5.43165155,28.6708962 C5.7891672,29.7265082 6.19372439,30.9232448 7.04235364,31.6458027 C7.85334967,32.3326091 9.13099771,32.5809884 10.4575689,32.3081475 C11.6768855,32.0578866 12.7814207,31.4670449 14.0985836,30.7181437 C15.6791791,29.8205913 17.5119172,28.9155122 19.2882055,29.6211352 C19.5196499,29.7095732 19.7398042,29.8299996 19.9599586,29.9466626 C20.2384445,30.0971955 20.4999954,30.2420834 20.7483747,30.2853616 C21.4144828,30.4057879 22.1502124,29.8525795 22.7128291,29.3577026 C25.9530499,26.5032224 27.8836344,23.1369303 28.1489487,19.8816562 C28.2355051,18.8241625 28.1922269,16.8559448 26.9446854,15.5331369 C26.8242591,15.4051839 26.6925428,15.2828759 26.5608265,15.1624496 C26.1713226,14.7992889 25.7310139,14.3872051 25.4920429,13.7982451 C25.1439355,12.9514975 25.3490366,12.0953416 25.5296761,11.3407954 C25.6595107,10.793232 25.7837004,10.2738935 25.691499,9.8298214 C25.5673093,9.22580811 24.985876,8.67636301 24.2125132,8.42798371 C23.4165704,8.17395943 22.5096097,8.21347432 21.6327555,8.24922589 C21.4238911,8.24169924 21.2545416,8.18148608 21.1228253,8.04036148 C20.991109,7.90111854 20.9290142,7.70918909 20.9497125,7.51537797 C21.0475588,6.66486706 21.1472869,5.78613122 20.9346592,5.00336011 C20.7653096,4.38053021 20.2948943,3.70125048 19.6269046,3.5883508 C19.3879336,3.54883591 19.0943944,3.5638892 18.7858019,3.57894249 C18.0444274,3.62033904 17.1261767,3.66549891 16.5560333,2.87520116 C16.3866838,2.64187515 16.302009,2.38973254 16.2361509,2.18651311 C16.2022809,2.0849034 16.1721744,1.98141203 16.1194878,1.88732896 C15.9143868,1.52981331 15.2388704,1.49406175 14.7120052,1.66717459 C14.4711525,1.7443227 14.2585248,1.84028743 14.0515421,1.9343705 C13.4625821,2.19968474 12.796474,2.50075055 11.8763416,2.27306953 C11.5733941,2.19968474 11.1142687,2.08678506 10.9468009,2.21097471 C10.907286,2.24108129 10.8508362,2.30505778 10.7943863,2.3671526 C10.66267,2.51768551 10.4801489,2.72654991 10.1978997,2.85073956 C9.81592243,3.02008908 9.44335349,2.96740256 9.17051259,2.92412435 C8.22027363,2.79240806 6.9764955,2.70208832 6.34237563,3.32303655 C6.14291953,3.51872933 5.96980669,3.74264703 5.79481219,3.9628014 C5.5558412,4.26198555 5.31498855,4.5611697 5.03273935,4.8189573 C4.68839533,5.1350764 4.31206307,5.37028407 3.94513911,5.59796509 C3.75320965,5.71650975 3.5612802,5.83881774 3.37687739,5.96865237 C2.86130219,6.33745799 2.40970347,6.8135183 2.07100443,7.34602845 C1.64010399,8.02154487 1.72101543,8.77609106 1.9656314,9.61719367 C2.09734769,9.39515763 2.24035395,9.16935827 2.3890052,8.94167725 C3.03065171,7.96321337 4.05427547,6.56137568 5.5313796,5.68828483 C7.05176195,4.79261404 8.85251183,4.64019948 10.2298879,5.30630758 C10.5591786,5.46436713 10.6965399,5.85763435 10.5384804,6.18316176 C10.3823025,6.51245249 9.98903527,6.64981376 9.65974454,6.49363588 C8.67375401,6.02322055 7.34718278,6.14552853 6.20125103,6.82292661 C4.96123622,7.55489286 4.05992045,8.79490767 3.48977707,9.6642352 C3.11908979,10.2287336 2.80108903,10.7781787 2.5301298,11.3125705 C2.70324264,11.8507257 2.8462489,12.4001708 2.88388212,12.9609058 C2.9873735,14.5001048 2.55082807,15.960274 2.12933594,17.37152 C2.05406948,17.6255442 1.97880303,17.8739235 1.90541824,18.1279478 M9.39443029,33.7363285 C8.15629714,33.7363285 7.03106367,33.3618779 6.18996106,32.6487282 C5.06284593,31.6909626 4.57549565,30.2514917 4.1841101,29.0923883 C3.68358819,27.6039942 3.11344481,25.9180257 3.17365797,24.177489 C3.17930295,23.9912045 3.19247458,23.80492 3.20564621,23.6167539 C3.24139778,23.1294036 3.27526768,22.6702782 3.16424966,22.2751294 C3.01371676,21.7426192 2.59598794,21.2834939 2.15191587,20.7942619 C1.94681479,20.5684625 1.7417137,20.3426632 1.55542923,20.1055739 C1.32586655,19.8139164 1.12076547,19.4977973 0.943889304,19.1628615 C0.59578196,19.0687785 0.385035892,18.7131445 0.477237296,18.3612738 C0.490408926,18.3067056 0.505462216,18.2502558 0.520515507,18.1919243 C0.110313339,17.015886 -0.0157579694,15.6817881 0.176171485,14.326992 C0.321059407,13.3108948 0.629651863,12.2853894 1.11135716,11.2260141 C1.09065889,11.1601559 1.06807895,11.0961795 1.04361735,11.0303213 C0.565675378,9.65859022 0.0237569183,8.10621963 0.960824256,6.63664214 C1.38984304,5.96488904 1.95998642,5.36463908 2.60915957,4.89986874 C2.81614232,4.75121749 3.03253337,4.61385622 3.24892442,4.48025826 C3.57821515,4.27515718 3.88868927,4.08134606 4.14271355,3.84802006 C4.37415789,3.63727399 4.56796901,3.3888947 4.76178012,3.14239706 C4.97252619,2.88084614 5.1813906,2.61741356 5.42224325,2.38220589 C6.4703286,1.35481881 8.1243089,1.44513855 9.27964895,1.60884309 C9.46028844,1.63706801 9.62022965,1.66529293 9.66538952,1.64647631 C9.68796946,1.63330469 9.75947259,1.55051159 9.80839578,1.49594341 C9.89871553,1.39245204 10.0116152,1.26449907 10.1640298,1.15159939 C10.8244929,0.658604122 11.6467789,0.859941883 12.1886974,0.995421498 C12.6497044,1.10832118 12.9582968,0.982249869 13.5115053,0.731988913 C13.7598846,0.620970896 14.0176722,0.506189555 14.307448,0.41398815 C15.3216634,0.0846974193 16.6745779,0.205123744 17.2635379,1.23627415 C17.3595027,1.403742 17.4253608,1.58814481 17.4874556,1.77442928 C17.5307338,1.90802724 17.5721304,2.03221689 17.6210536,2.10183835 C17.7640598,2.29753113 18.1253388,2.29376781 18.7161805,2.26366123 C19.0849861,2.24672628 19.4669633,2.226028 19.8489406,2.29000449 C20.9403042,2.47628896 21.8641999,3.40582965 22.2047806,4.65713443 C22.4098816,5.41168062 22.4004733,6.1812801 22.3383785,6.90760137 C23.0778714,6.89442974 23.8606425,6.93206296 24.6151887,7.17479727 C25.8514402,7.56806449 26.758401,8.48443355 26.9823186,9.56450715 C27.1328516,10.2945917 26.9616204,11.0133864 26.8110875,11.6475062 C26.6567912,12.2910344 26.5250749,12.8461245 26.7113594,13.3033682 C26.8411941,13.621369 27.1422599,13.9017365 27.4602606,14.199039 C27.6107935,14.3382819 27.7632081,14.4812882 27.902451,14.6299394 C29.0878977,15.8868892 29.6411061,17.7873671 29.4604666,19.9870292 C29.1669274,23.5866473 27.080165,27.2652952 23.5840383,30.3455748 C22.8012672,31.0361445 21.7475369,31.8019806 20.5150487,31.5837079 C20.057805,31.5009148 19.6720644,31.2901688 19.3314837,31.1057659 C19.1583709,31.0116829 18.985258,30.9157181 18.8046186,30.844215 C17.574012,30.3643914 16.1270145,31.0813043 14.7496384,31.8640755 C13.6338132,32.4981953 12.2432655,33.2866114 10.7228832,33.5989672 C10.2712845,33.6930503 9.82533073,33.7363285 9.39443029,33.7363285" id="Fill-8" fill="#535DDD"></path>
                            <path d="M14.0579397,13.8814145 C13.7418206,13.8814145 13.4859147,13.6255086 13.4859147,13.3093895 C13.4859147,12.9932704 13.7418206,12.7392461 14.0579397,12.7392461 C14.3721771,12.7392461 14.6280831,12.9932704 14.6280831,13.3093895 C14.6280831,13.6255086 14.3721771,13.8814145 14.0579397,13.8814145 M17.2530006,11.8473387 C16.3855548,11.5632078 15.5049373,11.4126749 14.6337281,11.4013849 C13.8791819,11.3976216 13.0775942,11.495468 12.2628348,11.717504 C12.0558521,11.7720722 11.9128458,11.9602383 11.9147091,12.1747477 C11.9203724,12.7975776 11.9843489,13.9849059 12.3023497,14.7507421 C12.6956169,15.706626 13.6533825,16.6794449 14.8689357,16.6794449 C14.9385572,16.6794449 15.0081787,16.6756816 15.0796818,16.6700366 C16.3046433,16.5571369 17.1457459,15.490235 17.4336401,14.4835462 C17.584173,13.9585627 17.6180429,13.0158503 17.5766464,12.2688308 C17.5653564,12.0750197 17.4374034,11.9075518 17.2530006,11.8473387" id="Fill-11" fill="#283238"></path>
                            <path d="M14.0579397,13.8814145 C13.7418206,13.8814145 13.4859147,13.6255086 13.4859147,13.3093895 C13.4859147,12.9932704 13.7418206,12.7392461 14.0579397,12.7392461 C14.3721771,12.7392461 14.6280831,12.9932704 14.6280831,13.3093895 C14.6280831,13.6255086 14.3721771,13.8814145 14.0579397,13.8814145 M14.0579397,12.0166882 C13.3429084,12.0166882 12.7633567,12.5943582 12.7633567,13.3093895 C12.7633567,14.0244208 13.3429084,14.6039725 14.0579397,14.6039725 C14.772971,14.6039725 15.350641,14.0244208 15.350641,13.3093895 C15.350641,12.5943582 14.772971,12.0166882 14.0579397,12.0166882" id="Fill-13" fill="#283238"></path>
                            <path d="M22.4960617,17.9755332 C22.2401558,17.9755332 21.9955398,17.826882 21.8901668,17.5747394 C20.6934302,14.7616557 17.7260503,12.770858 14.6702323,12.7313432 L14.5780309,12.7313432 C11.5542012,12.7313432 8.58305793,14.6355844 7.32798983,17.3884549 C7.17745692,17.7196273 6.78230805,17.8626336 6.45678064,17.7139823 C6.12560825,17.5634494 5.98072033,17.1739455 6.13125323,16.8408915 C7.59330408,13.6326589 11.0555609,11.4141802 14.5799126,11.4141802 C14.6175458,11.4141802 14.6514157,11.4141802 14.6871673,11.4160619 C18.2491521,11.4593401 21.7095273,13.7813102 23.1019567,17.0610458 C23.2449629,17.3940999 23.088785,17.7798405 22.7538493,17.9247284 C22.6691746,17.9585983 22.5826182,17.9755332 22.4960617,17.9755332" id="Fill-15" fill="#283238"></path>
                            <path d="M13.630863,24.0865655 C14.9312208,23.011471 16.0702211,22.4561089 17.6378314,22.3479231 C17.9970261,22.3231339 18.2681154,22.0118534 18.2433262,21.6526587 C18.218537,21.2934639 17.9072566,21.0223747 17.5480618,21.0471638 C15.6686753,21.1768663 14.2922163,21.8480102 12.8000562,23.0816808 C12.522565,23.3111018 12.4835963,23.7220353 12.7130172,23.9995266 C12.9424382,24.2770178 13.3533717,24.3159865 13.630863,24.0865655 Z" id="Stroke-1" fill="#283238" fill-rule="nonzero"></path>
                        </g>
                    </g>
                </g>
            </g>
        </g>
    </g>
</svg>