<?xml version="1.0" encoding="utf-8"?>
<!-- Generator: Adobe Illustrator 22.0.0, SVG Export Plug-In . SVG Version: 6.00 Build 0)  -->
<svg version="1.1" id="Layer_1" xmlns="http://www.w3.org/2000/svg" xmlns:xlink="http://www.w3.org/1999/xlink" x="0px" y="0px"
	 viewBox="0 0 323 645" style="enable-background:new 0 0 323 645;" xml:space="preserve">
<style type="text/css">
	.st0{fill:#F9FAFA;}
	.st1{fill:#FFFFFF;}
	.st2{fill:#777DDC;fill-opacity:9.790210e-02;}
	.st3{fill:#777DDC;}
	.st4{opacity:0.5003;fill:none;stroke:#ECEFF1;stroke-width:2;enable-background:new    ;}
	.st5{fill:none;stroke:#777DDC;stroke-width:2;stroke-linecap:round;}
	.st6{fill:#283238;}
	.st7{opacity:9.790000e-02;clip-path:url(#SVGID_2_);fill:#777DDC;}
	.st8{clip-path:url(#SVGID_4_);fill:#777DDC;}
	.st9{opacity:9.790000e-02;clip-path:url(#SVGID_6_);fill:#777DDC;}
	.st10{fill:none;stroke:#777DDC;stroke-width:1.71;stroke-linecap:round;stroke-linejoin:round;stroke-miterlimit:10;}
	.st11{fill:none;stroke:#777DDC;stroke-width:1.71;stroke-linecap:round;stroke-miterlimit:10;}
	.st12{clip-path:url(#SVGID_8_);}
	.st13{opacity:0.8;fill:#283238;}
	.st14{font-family:'SFProRounded-Regular';}
	.st15{font-size:22.9094px;}
	.st16{fill:#647C8A;}
</style>
<title>iphoneApp</title>
<desc>Created with Sketch.</desc>
<g id="Page-1">
	<g id="iphoneApp">
		<path id="Rectangle" class="st0" d="M44,0h235c24.3,0,44,19.7,44,44v557c0,24.3-19.7,44-44,44H44c-24.3,0-44-19.7-44-44V44
			C0,19.7,19.7,0,44,0z"/>
		<rect id="Rectangle_1_" x="14" y="63" class="st1" width="296" height="519"/>
		<g id="Group-3" transform="translate(48.000000, 517.000000)">
			<path id="Button-Shape-Copy-2" class="st2" d="M9.2,0h208.3c3.2,0,4.4,0.3,5.5,1c1.2,0.6,2.1,1.5,2.7,2.7c0.6,1.2,1,2.3,1,5.5
				v25.5c0,3.2-0.3,4.4-1,5.5c-0.6,1.2-1.5,2.1-2.7,2.7c-1.2,0.6-2.3,1-5.5,1H9.2c-3.2,0-4.4-0.3-5.5-1S1.6,41.5,1,40.3
				c-0.6-1.2-1-2.3-1-5.5V9.2C0,6,0.3,4.9,1,3.7S2.5,1.6,3.7,1C4.9,0.3,6,0,9.2,0z"/>
			<path id="Quit_x2013__x24_4" class="st3" d="M84.6,27.5c0.8,0,1.5-0.1,2.1-0.3l1,1.4h1.9l-1.5-2.1c1.3-1,2.1-2.8,2.1-5.2
				c0-3.9-2.1-6.3-5.6-6.3c-3.4,0-5.6,2.4-5.6,6.3C79,25.1,81.1,27.5,84.6,27.5z M84.6,25.9c-2.3,0-3.7-1.8-3.7-4.7s1.4-4.7,3.7-4.7
				c2.3,0,3.7,1.8,3.7,4.7c0,1.7-0.5,3-1.3,3.7l-1-1.3h-1.9l1.6,2.1C85.3,25.8,85,25.9,84.6,25.9z M99.7,18.2h-1.8v5.3
				c0,1.5-0.8,2.3-2.2,2.3c-1.3,0-1.9-0.7-1.9-2.2v-5.4H92V24c0,2.1,1.1,3.3,3.1,3.3c1.4,0,2.3-0.6,2.7-1.6H98v1.4h1.7V18.2z
				 M102.8,16.6c0.6,0,1.1-0.5,1.1-1.1c0-0.6-0.5-1.1-1.1-1.1s-1.1,0.5-1.1,1.1C101.7,16.1,102.2,16.6,102.8,16.6z M101.9,27.2h1.8
				v-9h-1.8V27.2z M106.5,15.9v2.3h-1.4v1.4h1.4v5.2c0,1.7,0.8,2.4,2.8,2.4c0.3,0,0.7,0,1-0.1v-1.4l-0.3,0c-0.1,0-0.2,0-0.3,0
				c-0.9,0-1.3-0.4-1.3-1.4v-4.8h2v-1.4h-2v-2.3H106.5z M123.4,23.2v-1.7h-8.5v1.7H123.4z M132.4,28.4h1V27c2.1-0.2,3.7-1.3,3.7-3.3
				c0-1.7-1.1-2.6-3.1-3.1l-0.6-0.1v-3.5c1,0.1,1.8,0.7,1.9,1.8h1.7c-0.1-1.9-1.6-3.1-3.6-3.3V14h-1v1.4c-2.1,0.2-3.6,1.4-3.6,3.2
				c0,1.7,1.1,2.6,3.2,3.1l0.3,0.1v3.6c-1.3-0.1-1.9-0.9-2.1-1.8h-1.7c0.1,2,1.7,3.2,3.8,3.3V28.4z M130.6,18.5
				c0-0.8,0.6-1.4,1.8-1.6v3.2C131.1,19.8,130.6,19.3,130.6,18.5z M135.4,23.8c0,0.9-0.6,1.6-2,1.7v-3.4
				C134.9,22.4,135.4,22.9,135.4,23.8z M144.9,27.2h1.8v-2.4h1.7v-1.6h-1.7v-8h-2.6c-1.7,2.5-3.4,5.3-5,8v1.6h5.8V27.2z M140.9,23.1
				c1.2-2.1,2.7-4.4,4-6.4h0.1v6.5h-4.1V23.1z"/>
		</g>
		<g id="Group-2" transform="translate(44.000000, 201.000000)">
			<circle id="Oval" class="st4" cx="118" cy="118" r="118"/>
			<path id="Path" class="st5" d="M118,0C52.8,0,0,52.8,0,118s52.8,118,118,118s118-52.8,118-118c0-37.1-17.1-70.1-43.8-91.8"/>
			<path id="_x32_4:39" class="st6" d="M60,109.4c0.2-6.2,5-10.6,11.4-10.6c6.4,0,11.3,4.5,11.3,10.3c0,4-1.8,7-8.1,13.6l-12.6,13.3
				v0.1h22.3v1.2H60.1v-1.1l13.6-14.4c6.1-6.4,7.7-9.1,7.7-12.8c0-5.1-4.3-9.1-10-9.1c-5.7,0-9.9,3.9-10.1,9.4H60z M104.8,137.4v-10
				H85.1v-1.2c5.9-8.9,12-17.4,19.2-27l1.8,0v27h6.2v1.2h-6.2v10H104.8z M86.7,126.1L86.7,126.1l18.1,0.1v-25.4h-0.1
				C98.2,109.3,92,118.1,86.7,126.1z M119.1,130.4c-0.7,0-1.4-0.6-1.4-1.4c0-0.8,0.6-1.4,1.4-1.4c0.8,0,1.4,0.6,1.4,1.4
				C120.5,129.7,119.9,130.4,119.1,130.4z M119.1,109.6c-0.7,0-1.4-0.6-1.4-1.4c0-0.7,0.6-1.4,1.4-1.4c0.8,0,1.4,0.6,1.4,1.4
				C120.5,109,119.9,109.6,119.1,109.6z M134.1,118.2V117h4.2c6.1,0,10.4-3.5,10.4-8.5c0-4.8-4.3-8.4-10-8.4c-5.4,0-9.7,3.6-10,8.3
				h-1.3c0.3-5.5,5.1-9.5,11.3-9.5c6.5,0,11.3,4.1,11.3,9.6c0,4.7-3.1,8.1-8.1,9.1v0.1c6,0.4,9.8,4.1,9.8,9.5
				c0,6.2-5.4,10.8-12.6,10.8c-7.1,0-12.5-4.3-12.6-9.9h1.3c0.1,4.9,5,8.7,11.3,8.7c6.5,0,11.3-4.1,11.3-9.6c0-5.6-4.5-8.9-12-8.9
				H134.1z M167.2,137.9c-6.3,0-10.8-3.8-11.5-9.2h1.3c0.7,4.5,4.6,8,10.2,8c7.8,0,12.3-7.4,12.6-19.2c0-0.8,0-1.8,0-2.6h-0.1
				c-1.2,5.2-6.4,9.3-12.3,9.3c-7.3,0-12.6-5.4-12.6-12.3c0-7.5,5.4-13.1,12.6-13.1c4,0,7.4,1.7,9.8,4.5c2.6,3.1,3.9,7.8,3.9,13.9
				C181,129.8,175.8,137.9,167.2,137.9z M167.3,123c6.3,0,11.6-5.2,11.6-10.8c0-6.8-5-12.2-11.6-12.2c-6.5,0-11.3,5.1-11.3,11.9
				C156,118,160.7,123,167.3,123z"/>
		</g>
		<g>
			<defs>
				<circle id="SVGID_1_" cx="270.6" cy="102.8" r="23.8"/>
			</defs>
			<clipPath id="SVGID_2_">
				<use xlink:href="#SVGID_1_"  style="overflow:visible;"/>
			</clipPath>
			<rect x="241.9" y="74" class="st7" width="57.5" height="57.5"/>
		</g>
		<g>
			<defs>
				<path id="SVGID_3_" d="M270.6,87.6c0.4,0,0.7,0.3,0.7,0.7v4.5c0,0.4-0.3,0.7-0.7,0.7c-0.4,0-0.7-0.3-0.7-0.7v-4.5
					C270,87.8,270.3,87.6,270.6,87.6z M280.5,92c0.3-0.3,0.7-0.3,0.9,0c0.3,0.3,0.3,0.7,0,0.9l-3.2,3.2c-0.3,0.3-0.7,0.3-0.9,0
					c-0.3-0.3-0.3-0.7,0-0.9L280.5,92z M259.9,92c0.3-0.3,0.7-0.3,0.9,0l3.2,3.2c0.3,0.3,0.3,0.7,0,0.9c-0.3,0.3-0.7,0.3-0.9,0
					l-3.2-3.2C259.6,92.7,259.6,92.3,259.9,92z M285.2,102.1c0.4,0,0.7,0.3,0.7,0.7s-0.3,0.7-0.7,0.7h-4.5c-0.4,0-0.7-0.3-0.7-0.7
					s0.3-0.7,0.7-0.7H285.2z M260.6,102.1c0.4,0,0.7,0.3,0.7,0.7s-0.3,0.7-0.7,0.7h-4.5c-0.4,0-0.7-0.3-0.7-0.7s0.3-0.7,0.7-0.7
					H260.6z M270.6,96.4c3.5,0,6.4,2.9,6.4,6.4s-2.9,6.4-6.4,6.4c-3.5,0-6.4-2.9-6.4-6.4S267.1,96.4,270.6,96.4z M263.1,109.4
					c0.3-0.3,0.7-0.3,0.9,0c0.3,0.3,0.3,0.7,0,0.9l-3.2,3.2c-0.3,0.3-0.7,0.3-0.9,0c-0.3-0.3-0.3-0.7,0-0.9L263.1,109.4z
					 M277.3,109.4c0.3-0.3,0.7-0.3,0.9,0l3.2,3.2c0.3,0.3,0.3,0.7,0,0.9c-0.3,0.3-0.7,0.3-0.9,0l-3.2-3.2
					C277,110.1,277,109.7,277.3,109.4z M270.6,112.2c0.4,0,0.7,0.3,0.7,0.7v4.5c0,0.4-0.3,0.7-0.7,0.7c-0.4,0-0.7-0.3-0.7-0.7v-4.5
					C270,112.5,270.3,112.2,270.6,112.2z"/>
			</defs>
			<clipPath id="SVGID_4_">
				<use xlink:href="#SVGID_3_"  style="overflow:visible;"/>
			</clipPath>
			<rect x="250.4" y="82.6" class="st8" width="40.4" height="40.4"/>
		</g>
		<g>
			<defs>
				<circle id="SVGID_5_" cx="53.9" cy="102.9" r="23.9"/>
			</defs>
			<clipPath id="SVGID_6_">
				<use xlink:href="#SVGID_5_"  style="overflow:visible;"/>
			</clipPath>
			<rect x="25" y="74" class="st9" width="57.9" height="57.9"/>
		</g>
		<polyline class="st10" points="54.4,94.3 45.3,103.4 54.4,112.4 		"/>
		<line class="st11" x1="45.8" y1="103.4" x2="63.3" y2="103.4"/>
		<g>
			<defs>
				<rect id="SVGID_7_" x="120.9" y="88" width="84" height="33"/>
			</defs>
			<clipPath id="SVGID_8_">
				<use xlink:href="#SVGID_7_"  style="overflow:visible;"/>
			</clipPath>
			<g class="st12">
				<text transform="matrix(1 0 0 1 150.88 112.1581)" class="st13 st14 st15">Brutu</text>
			</g>
			<g class="st12">
				<defs>
					<rect id="SVGID_9_" x="122.6" y="92.8" width="23.1" height="23.6"/>
				</defs>
				<clipPath id="SVGID_10_">
					<use xlink:href="#SVGID_9_"  style="overflow:visible;"/>
				</clipPath>
				<g transform="matrix(1 0 0 1 0 0)" style="clip-path:url(#SVGID_10_);">
					
						<image style="overflow:visible;" width="256" height="256" xlink:href="F2A2E66A5D2D8B95.png"  transform="matrix(9.040180e-02 0 0 9.228516e-02 122.5943 92.75)">
					</image>
				</g>
			</g>
		</g>
		<g>
			<path class="st16" d="M34.4,141.7h0.9c0.1,0.4,0.6,0.7,1.4,0.7c1,0,1.5-0.5,1.5-1.3v-1.1h-0.1c-0.3,0.6-1,0.9-1.7,0.9
				c-1.4,0-2.3-1.1-2.3-2.7c0-1.6,0.9-2.7,2.3-2.7c0.8,0,1.4,0.4,1.7,1h0.1v-0.9h0.8v5.5c0,1.2-0.9,2-2.4,2
				C35.4,143.2,34.5,142.6,34.4,141.7z M38.2,138.3c0-1.2-0.6-1.9-1.6-1.9c-1,0-1.6,0.8-1.6,1.9c0,1.2,0.6,1.9,1.6,1.9
				S38.2,139.5,38.2,138.3z"/>
			<path class="st16" d="M40.4,138.4c0-1.7,1-2.8,2.5-2.8c1.5,0,2.5,1.1,2.5,2.8c0,1.7-1,2.8-2.5,2.8
				C41.4,141.2,40.4,140.1,40.4,138.4z M44.5,138.4c0-1.3-0.6-2-1.6-2s-1.6,0.7-1.6,2c0,1.3,0.6,2,1.6,2S44.5,139.7,44.5,138.4z"/>
			<path class="st16" d="M50.6,140.3L50.6,140.3l-0.1,0.9h-0.8v-7.5h0.9v3h0.1c0.3-0.6,1-0.9,1.7-0.9c1.4,0,2.3,1.1,2.3,2.8
				c0,1.7-0.9,2.8-2.3,2.8C51.6,141.2,50.9,140.9,50.6,140.3z M50.5,138.4c0,1.2,0.6,2,1.6,2c1,0,1.6-0.8,1.6-2c0-1.3-0.6-2-1.6-2
				C51.2,136.4,50.5,137.2,50.5,138.4z"/>
			<path class="st16" d="M55.6,139.6c0-1,0.7-1.5,2-1.6l1.6-0.1v-0.5c0-0.7-0.4-1-1.2-1c-0.6,0-1.1,0.2-1.2,0.7h-0.9
				c0.1-0.9,1-1.4,2.1-1.4c1.3,0,2.1,0.7,2.1,1.8v3.7h-0.8v-0.8h-0.1c-0.4,0.6-0.9,0.9-1.7,0.9C56.4,141.2,55.6,140.6,55.6,139.6z
				 M59.2,139.1v-0.5l-1.5,0.1c-0.8,0.1-1.2,0.3-1.2,0.9c0,0.6,0.5,0.9,1.1,0.9C58.5,140.5,59.2,139.9,59.2,139.1z"/>
			<path class="st16" d="M65.2,137.4c-0.1-0.5-0.6-1-1.4-1c-1,0-1.6,0.8-1.6,2c0,1.2,0.6,2,1.6,2c0.7,0,1.2-0.3,1.4-0.9h0.9
				c-0.2,1-1,1.7-2.3,1.7c-1.5,0-2.5-1.1-2.5-2.8c0-1.7,1-2.8,2.5-2.8c1.3,0,2.1,0.8,2.3,1.7H65.2z"/>
			<path class="st16" d="M70.7,135.7h1.1l-2.3,2.3l2.5,3.1h-1.1l-2-2.5l-0.5,0.5v2h-0.9v-7.5h0.9v4.5h0.1L70.7,135.7z"/>
		</g>
		<g>
			<path class="st16" d="M45.8,146L45.8,146l-1.9,1.3v-1l1.9-1.4h0.9v7.2h-0.9V146z"/>
			<path class="st16" d="M51.2,144.8c1.3,0,2.2,0.9,2.2,2c0,0.8-0.4,1.4-1.7,2.8l-1.6,1.7v0.1h3.4v0.8h-4.7v-0.6l2.4-2.6
				c0.9-1,1.2-1.4,1.2-2c0-0.8-0.5-1.3-1.4-1.3c-0.9,0-1.4,0.6-1.4,1.4h-0.9C48.8,145.8,49.8,144.8,51.2,144.8z"/>
			<path class="st16" d="M59.8,146.7c1.1,0,1.9,0.6,2,1.4H61c-0.1-0.4-0.5-0.7-1.2-0.7c-0.6,0-1.1,0.3-1.1,0.8
				c0,0.4,0.3,0.6,0.9,0.8l0.8,0.2c1,0.2,1.5,0.7,1.5,1.5c0,1-0.9,1.6-2.2,1.6c-1.2,0-2-0.6-2.1-1.5h0.9c0.1,0.5,0.6,0.7,1.3,0.7
				c0.7,0,1.2-0.3,1.2-0.8c0-0.4-0.3-0.6-0.9-0.8l-0.9-0.2c-1-0.2-1.5-0.7-1.5-1.5C57.8,147.4,58.7,146.7,59.8,146.7z"/>
		</g>
	</g>
</g>
</svg>
