<?xml version="1.0" encoding="UTF-8"?>
<svg width="323px" height="645px" viewBox="0 0 323 645" version="1.1" xmlns="http://www.w3.org/2000/svg" xmlns:xlink="http://www.w3.org/1999/xlink">
    <!-- Generator: Sketch 56.2 (81672) - https://sketch.com -->
    <title>Group 3</title>
    <desc>Created with Sketch.</desc>
    <g id="4---timer" stroke="none" stroke-width="1" fill="none" fill-rule="evenodd">
        <g id="Desktop-HD" transform="translate(-347.000000, -200.000000)">
            <g id="Group-3" transform="translate(347.000000, 200.000000)">
                <rect id="Rectangle" fill="#F9FAFA" x="0" y="0" width="323" height="645" rx="44"></rect>
                <rect id="Rectangle" fill="#FFFFFF" x="14" y="63" width="296" height="519"></rect>
                <path d="M103.01018,301.398047 C103.19475,295.228125 107.967211,290.824805 114.453539,290.824805 C120.834398,290.824805 125.712328,295.280859 125.712328,301.108008 C125.712328,305.089453 123.892992,308.148047 117.643969,314.739844 L105.093188,328.055273 L105.093188,328.160742 L127.373461,328.160742 L127.373461,329.4 L103.142016,329.4 L103.142016,328.318945 L116.69475,313.896094 C122.759203,307.515234 124.393969,304.799414 124.393969,301.134375 C124.393969,295.992773 120.06975,292.037695 114.427172,292.037695 C108.731859,292.037695 104.486742,295.966406 104.328539,301.398047 L103.01018,301.398047 Z M147.79767,329.4 L147.79767,319.406836 L128.075014,319.406836 L128.075014,318.167578 C134.007631,309.255469 140.045717,300.765234 147.296694,291.193945 L149.089663,291.167578 L149.089663,318.193945 L155.338686,318.193945 L155.338686,319.406836 L149.089663,319.406836 L149.089663,329.4 L147.79767,329.4 Z M129.657045,318.114844 L129.657045,318.193945 L147.79767,318.193945 L147.79767,292.749609 L147.744936,292.749609 C141.153139,301.345312 134.983217,310.125586 129.657045,318.114844 Z M162.104692,322.359961 C161.366411,322.359961 160.733598,321.727148 160.733598,320.988867 C160.733598,320.224219 161.366411,319.591406 162.104692,319.591406 C162.869341,319.591406 163.502153,320.224219 163.502153,320.988867 C163.502153,321.727148 162.869341,322.359961 162.104692,322.359961 Z M162.104692,301.635352 C161.366411,301.635352 160.733598,301.002539 160.733598,300.237891 C160.733598,299.499609 161.366411,298.866797 162.104692,298.866797 C162.869341,298.866797 163.502153,299.499609 163.502153,300.237891 C163.502153,301.002539 162.869341,301.635352 162.104692,301.635352 Z M177.149995,310.204687 L177.149995,308.991797 L181.316011,308.991797 C187.459566,308.991797 191.678316,305.484961 191.678316,300.448828 C191.678316,295.65 187.406831,292.037695 181.685152,292.037695 C176.279878,292.037695 171.982027,295.597266 171.66562,300.316992 L170.373628,300.316992 C170.663667,294.858984 175.462495,290.824805 181.685152,290.824805 C188.17148,290.824805 192.996675,294.911719 192.996675,300.396094 C192.996675,305.11582 189.911714,308.543555 184.849214,309.492773 L184.849214,309.598242 C190.808198,309.967383 194.657808,313.685156 194.657808,319.09043 C194.657808,325.339453 189.305269,329.927344 182.027925,329.927344 C174.961519,329.927344 169.556245,325.603125 169.477144,319.986914 L170.795503,319.986914 C170.874605,324.891211 175.805269,328.714453 182.054292,328.714453 C188.514253,328.714453 193.339448,324.653906 193.339448,319.09043 C193.339448,313.526953 188.830659,310.204687 181.316011,310.204687 L177.149995,310.204687 Z M210.151353,329.927344 C203.849595,329.927344 199.393541,326.077734 198.602525,320.698828 L199.920884,320.698828 C200.659166,325.207617 204.482408,328.714453 210.151353,328.714453 C217.982408,328.714453 222.438462,321.278906 222.702134,309.519141 C222.728502,308.754492 222.702134,307.726172 222.675767,306.908789 L222.623033,306.908789 C221.462877,312.129492 216.242173,316.242773 210.283189,316.242773 C202.979478,316.242773 197.653306,310.890234 197.653306,303.90293 C197.653306,296.441016 203.005845,290.824805 210.283189,290.824805 C214.317369,290.824805 217.692369,292.485937 220.039048,295.359961 C222.6494,298.471289 223.967759,303.164648 223.967759,309.281836 C223.967759,321.832617 218.773423,329.927344 210.151353,329.927344 Z M210.335923,315.029883 C216.637681,315.029883 221.911119,309.861914 221.911119,304.192969 C221.911119,297.442969 216.92772,292.037695 210.283189,292.037695 C203.796861,292.037695 198.971666,297.179297 198.971666,303.90293 C198.971666,309.99375 203.665025,315.029883 210.335923,315.029883 Z" id="24:39" fill="#283238" fill-rule="nonzero"></path>
                <path d="M62.2299867,516.5 L270.570013,516.5 C273.779481,516.5 274.943311,516.834172 276.116645,517.461678 C277.289978,518.089183 278.210817,519.010022 278.838322,520.183355 C279.465828,521.356689 279.8,522.520519 279.8,525.729987 L279.8,551.270013 C279.8,554.479481 279.465828,555.643311 278.838322,556.816645 C278.210817,557.989978 277.289978,558.910817 276.116645,559.538322 C274.943311,560.165828 273.779481,560.5 270.570013,560.5 L62.2299867,560.5 C59.0205193,560.5 57.8566888,560.165828 56.6833555,559.538322 C55.5100221,558.910817 54.5891833,557.989978 53.9616777,556.816645 C53.3341722,555.643311 53,554.479481 53,551.270013 L53,525.729987 C53,522.520519 53.3341722,521.356689 53.9616777,520.183355 C54.5891833,519.010022 55.5100221,518.089183 56.6833555,517.461678 C57.8566888,516.834172 59.0205193,516.5 62.2299867,516.5 Z" id="Button-Shape-Copy-2" fill-opacity="0.0979020979" fill="#777DDC"></path>
                <path d="M140.293245,544.661475 C137.185432,544.661475 135.257991,542.517383 135.257991,539.013623 C135.257991,535.524805 137.200374,533.358301 140.293245,533.358301 C143.378645,533.358301 145.313557,535.524805 145.313557,539.013623 C145.313557,541.068066 144.656135,542.681738 143.483235,543.585693 L144.835432,545.543018 L143.087288,545.543018 L142.205745,544.355176 C141.637971,544.556885 140.98802,544.661475 140.293245,544.661475 Z M140.300715,543.100098 C140.651838,543.100098 140.98802,543.055273 141.316731,542.965625 L139.964534,541.090479 L141.675325,541.090479 L142.482161,542.091553 C143.199348,541.478955 143.602766,540.388232 143.602766,539.013623 C143.602766,536.503467 142.317805,534.919678 140.293245,534.919678 C138.261213,534.919678 136.976253,536.495996 136.976253,539.013623 C136.976253,541.53125 138.253743,543.100098 140.300715,543.100098 Z M153.881318,536.264404 L153.881318,544.4 L152.334883,544.4 L152.334883,543.107568 L152.207881,543.107568 C151.811933,544.033936 150.982685,544.556885 149.750019,544.556885 C147.94958,544.556885 146.948506,543.458691 146.948506,541.546191 L146.948506,536.264404 L148.554707,536.264404 L148.554707,541.127832 C148.554707,542.442676 149.085127,543.070215 150.265498,543.070215 C151.5654,543.070215 152.275117,542.300732 152.275117,541.023242 L152.275117,536.264404 L153.881318,536.264404 Z M155.87486,544.4 L155.87486,536.264404 L157.473591,536.264404 L157.473591,544.4 L155.87486,544.4 Z M156.674226,534.8375 C156.076569,534.8375 155.635798,534.41167 155.635798,533.858838 C155.635798,533.298535 156.076569,532.872705 156.674226,532.872705 C157.271882,532.872705 157.712653,533.298535 157.712653,533.858838 C157.712653,534.41167 157.271882,534.8375 156.674226,534.8375 Z M160.034906,534.239844 L161.641108,534.239844 L161.641108,536.301758 L163.404194,536.301758 L163.404194,537.653955 L161.641108,537.653955 L161.641108,541.837549 C161.641108,542.689209 161.992231,543.062744 162.791596,543.062744 C163.038129,543.062744 163.180072,543.047803 163.404194,543.025391 L163.404194,544.362646 C163.142719,544.407471 162.843891,544.444824 162.530121,544.444824 C160.744623,544.444824 160.034906,543.817285 160.034906,542.248438 L160.034906,537.653955 L158.742475,537.653955 L158.742475,536.301758 L160.034906,536.301758 L160.034906,534.239844 Z M175.228046,540.843945 L167.578046,540.843945 L167.578046,539.267627 L175.228046,539.267627 L175.228046,540.843945 Z M184.287737,545.416016 L183.264251,545.416016 L183.264251,544.444824 C181.12763,544.302881 179.782903,543.12998 179.775433,541.396777 L181.359222,541.396777 C181.433929,542.285791 182.151116,542.905859 183.264251,543.032861 L183.264251,539.626221 L182.599358,539.454395 C180.933392,539.028564 180.021966,538.02749 180.021966,536.570703 C180.021966,534.844971 181.247161,533.701953 183.264251,533.515186 L183.264251,532.484229 L184.287737,532.484229 L184.287737,533.515186 C186.222649,533.687012 187.492669,534.867383 187.537493,536.53335 L185.976116,536.53335 C185.946233,535.711572 185.27387,535.069092 184.287737,534.949561 L184.287737,538.169434 L184.982513,538.326318 C186.857659,538.782031 187.739202,539.730811 187.739202,541.277246 C187.739202,543.107568 186.476653,544.250586 184.287737,544.437354 L184.287737,545.416016 Z M186.147942,541.449072 C186.147942,540.589941 185.557757,540.074463 184.287737,539.820459 L184.287737,543.047803 C185.468108,542.980566 186.147942,542.397852 186.147942,541.449072 Z M181.620696,536.43623 C181.620696,537.205713 182.18847,537.736133 183.264251,537.952783 L183.264251,534.94209 C182.308001,534.994385 181.620696,535.621924 181.620696,536.43623 Z M189.538506,536.735059 C189.538506,534.747852 191.040117,533.358301 193.161797,533.358301 C195.20877,533.358301 196.717852,534.658203 196.717852,536.43623 C196.717852,537.579248 196.16502,538.513086 194.35711,540.343408 L191.959014,542.771387 L191.959014,542.898389 L196.889678,542.898389 L196.889678,544.4 L189.628155,544.4 L189.628155,543.189746 L193.273858,539.394629 C194.715703,537.893018 195.066826,537.325244 195.066826,536.53335 C195.066826,535.547217 194.222637,534.807617 193.109502,534.807617 C191.92166,534.807617 191.122295,535.58457 191.122295,536.735059 L191.122295,536.757471 L189.538506,536.757471 L189.538506,536.735059 Z" id="Quit–$2" fill="#777DDC" fill-rule="nonzero" style="mix-blend-mode: multiply;"></path>
                <g id="Group" transform="translate(231.800000, 86.000000)" fill="#777DDC">
                    <circle id="Oval-Copy-21" fill-opacity="0.0979020979" cx="25.2" cy="25.2" r="25.2"></circle>
                    <path d="M18.98127,25.67457 C18.98127,22.00887 21.95307,19.03707 25.61877,19.03707 C29.28447,19.03707 32.25627,22.00887 32.25627,25.67457 C32.25627,29.34027 29.28447,32.31207 25.61877,32.31207 C21.95307,32.31207 18.98127,29.34027 18.98127,25.67457 Z M15.46785,14.5134 L18.75645,17.8011 C19.01925,18.0648 19.01925,18.4923 18.75645,18.756 C18.49275,19.0197 18.06525,19.0197 17.80155,18.756 L14.51295,15.4683 C14.24925,15.2046 14.24925,14.7771 14.51295,14.5134 C14.77665,14.2497 15.20505,14.2497 15.46785,14.5134 Z M33.49953,32.54418 L36.78723,35.83278 C37.05093,36.09648 37.05093,36.52398 36.78723,36.78768 C36.52353,37.05138 36.09603,37.05138 35.83323,36.78768 L32.54463,33.49998 C32.28093,33.23628 32.28093,32.80788 32.54463,32.54418 C32.80833,32.28138 33.23583,32.28138 33.49953,32.54418 Z M14.51367,35.83278 L17.80137,32.54418 C18.06507,32.28138 18.49257,32.28138 18.75627,32.54418 C19.01997,32.80788 19.01997,33.23628 18.75627,33.49998 L15.46767,36.78768 C15.20487,37.05138 14.77737,37.05138 14.51367,36.78768 C14.24997,36.52398 14.24997,36.09648 14.51367,35.83278 Z M36.78723,15.46812 L33.49953,18.75582 C33.23583,19.01952 32.80833,19.01952 32.54463,18.75582 C32.28093,18.49212 32.28093,18.06462 32.54463,17.80092 L35.83323,14.51322 C36.09603,14.24952 36.52353,14.24952 36.78723,14.51322 C37.05093,14.77692 37.05093,15.20442 36.78723,15.46812 Z M26.32545,15.2253 C26.32545,15.5979 26.02305,15.9003 25.65045,15.9003 C25.27785,15.9003 24.97545,15.5979 24.97545,15.2253 L24.97545,10.575 C24.97545,10.2024 25.27785,9.9 25.65045,9.9 C26.02305,9.9 26.32545,10.2024 26.32545,10.575 L26.32545,15.2253 Z M24.97545,36.0756 C24.97545,35.703 25.27785,35.4006 25.65045,35.4006 C26.02305,35.4006 26.32545,35.703 26.32545,36.0756 L26.32545,40.725 C26.32545,41.0976 26.02305,41.4 25.65045,41.4 C25.27785,41.4 24.97545,41.0976 24.97545,40.725 L24.97545,36.0756 Z M15.2253,24.975 C15.5988,24.975 15.9003,25.2774 15.9003,25.65 C15.9003,26.0226 15.5988,26.325 15.2253,26.325 L10.575,26.325 C10.2024,26.325 9.9,26.0226 9.9,25.65 C9.9,25.2774 10.2024,24.975 10.575,24.975 L15.2253,24.975 Z M36.07515,24.975 L40.72545,24.975 C41.09805,24.975 41.40045,25.2774 41.40045,25.65 C41.40045,26.0226 41.09805,26.325 40.72545,26.325 L36.07515,26.325 C35.70255,26.325 35.40015,26.0226 35.40015,25.65 C35.40015,25.2774 35.70255,24.975 36.07515,24.975 Z" id="Icon-Copy-15" opacity="0.529459635"></path>
                </g>
                <circle id="Oval" stroke="#ECEFF1" stroke-width="2" opacity="0.500255766" cx="161" cy="310" r="118"></circle>
                <path d="M161,192 C95.8303995,192 43,244.8304 43,310 C43,375.1696 95.8303995,428 161,428 C226.1696,428 279,375.1696 279,310 C279,272.932687 261.908665,239.85727 235.176724,218.224476" id="Path" stroke="#777DDC" stroke-width="2" stroke-linecap="round"></path>
            </g>
        </g>
    </g>
</svg>