<?xml version="1.0" encoding="UTF-8"?>
<svg width="323px" height="645px" viewBox="0 0 323 645" version="1.1" xmlns="http://www.w3.org/2000/svg" xmlns:xlink="http://www.w3.org/1999/xlink">
    <!-- Generator: Sketch 56.2 (81672) - https://sketch.com -->
    <title>Group 3</title>
    <desc>Created with Sketch.</desc>
    <g id="4---timer" stroke="none" stroke-width="1" fill="none" fill-rule="evenodd">
        <g id="Desktop-HD" transform="translate(-347.000000, -200.000000)">
            <g id="Group-3" transform="translate(347.000000, 200.000000)">
                <rect id="Rectangle" fill="#F9FAFA" x="0" y="0" width="323" height="645" rx="44"></rect>
                <rect id="Rectangle" fill="#FFFFFF" x="14" y="63" width="296" height="519"></rect>
                <text id="24:39" font-family="SFProDisplay-Ultralight, SF Pro Display" font-size="54" font-weight="200" letter-spacing="-1.30235313" fill="#283238">
                    <tspan x="99.6351797" y="329.4">24:39</tspan>
                </text>
                <path d="M62.2299867,516.5 L270.570013,516.5 C273.779481,516.5 274.943311,516.834172 276.116645,517.461678 C277.289978,518.089183 278.210817,519.010022 278.838322,520.183355 C279.465828,521.356689 279.8,522.520519 279.8,525.729987 L279.8,551.270013 C279.8,554.479481 279.465828,555.643311 278.838322,556.816645 C278.210817,557.989978 277.289978,558.910817 276.116645,559.538322 C274.943311,560.165828 273.779481,560.5 270.570013,560.5 L62.2299867,560.5 C59.0205193,560.5 57.8566888,560.165828 56.6833555,559.538322 C55.5100221,558.910817 54.5891833,557.989978 53.9616777,556.816645 C53.3341722,555.643311 53,554.479481 53,551.270013 L53,525.729987 C53,522.520519 53.3341722,521.356689 53.9616777,520.183355 C54.5891833,519.010022 55.5100221,518.089183 56.6833555,517.461678 C57.8566888,516.834172 59.0205193,516.5 62.2299867,516.5 Z" id="Button-Shape-Copy-2" fill-opacity="0.0979020979" fill="#777DDC"></path>
                <text id="Label-Copy-3" style="mix-blend-mode: multiply;" font-family="SFProText-Medium, SF Pro Text" font-size="15.3" font-weight="400" line-spacing="19.8" letter-spacing="-0.367199993" fill="#777DDC">
                    <tspan x="134.346565" y="543.6">Quit – $2</tspan>
                </text>
                <g id="Group" transform="translate(231.800000, 86.000000)" fill="#777DDC">
                    <circle id="Oval-Copy-21" fill-opacity="0.0979020979" cx="25.2" cy="25.2" r="25.2"></circle>
                    <path d="M18.98127,25.67457 C18.98127,22.00887 21.95307,19.03707 25.61877,19.03707 C29.28447,19.03707 32.25627,22.00887 32.25627,25.67457 C32.25627,29.34027 29.28447,32.31207 25.61877,32.31207 C21.95307,32.31207 18.98127,29.34027 18.98127,25.67457 Z M15.46785,14.5134 L18.75645,17.8011 C19.01925,18.0648 19.01925,18.4923 18.75645,18.756 C18.49275,19.0197 18.06525,19.0197 17.80155,18.756 L14.51295,15.4683 C14.24925,15.2046 14.24925,14.7771 14.51295,14.5134 C14.77665,14.2497 15.20505,14.2497 15.46785,14.5134 Z M33.49953,32.54418 L36.78723,35.83278 C37.05093,36.09648 37.05093,36.52398 36.78723,36.78768 C36.52353,37.05138 36.09603,37.05138 35.83323,36.78768 L32.54463,33.49998 C32.28093,33.23628 32.28093,32.80788 32.54463,32.54418 C32.80833,32.28138 33.23583,32.28138 33.49953,32.54418 Z M14.51367,35.83278 L17.80137,32.54418 C18.06507,32.28138 18.49257,32.28138 18.75627,32.54418 C19.01997,32.80788 19.01997,33.23628 18.75627,33.49998 L15.46767,36.78768 C15.20487,37.05138 14.77737,37.05138 14.51367,36.78768 C14.24997,36.52398 14.24997,36.09648 14.51367,35.83278 Z M36.78723,15.46812 L33.49953,18.75582 C33.23583,19.01952 32.80833,19.01952 32.54463,18.75582 C32.28093,18.49212 32.28093,18.06462 32.54463,17.80092 L35.83323,14.51322 C36.09603,14.24952 36.52353,14.24952 36.78723,14.51322 C37.05093,14.77692 37.05093,15.20442 36.78723,15.46812 Z M26.32545,15.2253 C26.32545,15.5979 26.02305,15.9003 25.65045,15.9003 C25.27785,15.9003 24.97545,15.5979 24.97545,15.2253 L24.97545,10.575 C24.97545,10.2024 25.27785,9.9 25.65045,9.9 C26.02305,9.9 26.32545,10.2024 26.32545,10.575 L26.32545,15.2253 Z M24.97545,36.0756 C24.97545,35.703 25.27785,35.4006 25.65045,35.4006 C26.02305,35.4006 26.32545,35.703 26.32545,36.0756 L26.32545,40.725 C26.32545,41.0976 26.02305,41.4 25.65045,41.4 C25.27785,41.4 24.97545,41.0976 24.97545,40.725 L24.97545,36.0756 Z M15.2253,24.975 C15.5988,24.975 15.9003,25.2774 15.9003,25.65 C15.9003,26.0226 15.5988,26.325 15.2253,26.325 L10.575,26.325 C10.2024,26.325 9.9,26.0226 9.9,25.65 C9.9,25.2774 10.2024,24.975 10.575,24.975 L15.2253,24.975 Z M36.07515,24.975 L40.72545,24.975 C41.09805,24.975 41.40045,25.2774 41.40045,25.65 C41.40045,26.0226 41.09805,26.325 40.72545,26.325 L36.07515,26.325 C35.70255,26.325 35.40015,26.0226 35.40015,25.65 C35.40015,25.2774 35.70255,24.975 36.07515,24.975 Z" id="Icon-Copy-15" opacity="0.529459635"></path>
                </g>
                <circle id="Oval" stroke="#ECEFF1" stroke-width="2" opacity="0.500255766" cx="161" cy="310" r="118"></circle>
                <path d="M161,192 C95.8303995,192 43,244.8304 43,310 C43,375.1696 95.8303995,428 161,428 C226.1696,428 279,375.1696 279,310 C279,272.932687 261.908665,239.85727 235.176724,218.224476" id="Path" stroke="#777DDC" stroke-width="2" stroke-linecap="round"></path>
            </g>
        </g>
    </g>
</svg>